#define layout_tall_width 16
#define layout_tall_height 11
static unsigned char layout_tall_bits[] = {
 0xFF, 0xFF, 0xFF, 0xFF, 0x83, 0xC1, 0x83, 0xC1, 0x83, 0xC1, 0x83, 0xFF, 0x83, 0xC1,
 0x83, 0xC1, 0x83, 0xC1, 0xFF, 0xFF, 0xFF, 0xFF};
