#define tri_width 16
#define tri_height 16
static unsigned char tri_bits[] = {
    0x80, 0x00, 0xC0, 0x00, 0xE0, 0x00, 0xF0, 0x00,
    0xF8, 0x00, 0xFC, 0x00, 0xFE, 0x00, 0xFF, 0x00,
    0xFF, 0x00, 0xFE, 0x00, 0xFC, 0x00, 0xF8, 0x00,
    0xF0, 0x00, 0xE0, 0x00, 0xC0, 0x00, 0x80, 0x00};
