#define tri_width 20
#define tri_height 20
static unsigned char tri_bits[] = {

    0x00, 0x00, 0x08, 0x00, 0x00, 0x0C, 0x00, 0x00, 0x0E, 0x00, 0x00, 0x0F,
    0x00, 0x80, 0x8F, 0x00, 0xC0, 0xCF, 0x00, 0xE0, 0xEF, 0x00, 0xF0, 0xFF,
    0x00, 0xF8, 0xFF, 0x00, 0xFC, 0xFF, 0x00, 0xFC, 0xFF, 0x00, 0xF8, 0xFF,
    0x00, 0xF0, 0xFF, 0x00, 0xE0, 0xEF, 0x00, 0xC0, 0xCF, 0x00, 0x80, 0x8F,
    0x00, 0x00, 0x0F, 0x00, 0x00, 0x0E, 0x00, 0x00, 0x0C, 0x00, 0x00, 0x08};
